<!--?xml version="1.0" standalone="no"?-->
              <svg id="sw-js-blob-svg" viewBox="0 0 100 100" xmlns="http://www.w3.org/2000/svg" version="1.1">
                    <defs> 
                       <linearGradient id="sw-gradient" x1="0" y1="0" x2="100%" y2="100%">
    <stop offset="0%" stop-color="#4338CA"></stop>
    <stop offset="100%" stop-color="#3025A1"></stop>
</linearGradient>



                    </defs>
                <path fill="url(#sw-gradient)" d="M21.7,-34.1C27,-30.3,29.6,-22.5,33,-15.1C36.4,-7.6,40.7,-0.6,41.6,7.3C42.6,15.2,40.1,23.9,34.4,28.8C28.6,33.7,19.6,34.8,11.1,36.8C2.6,38.9,-5.3,41.9,-12.4,40.6C-19.5,39.3,-25.8,33.5,-29.2,26.9C-32.6,20.2,-33.2,12.5,-34.8,4.7C-36.5,-3.2,-39.3,-11.2,-37.2,-17.5C-35.2,-23.9,-28.3,-28.6,-21.3,-31.6C-14.3,-34.6,-7.1,-35.9,0.5,-36.7C8.2,-37.5,16.3,-37.8,21.7,-34.1Z" width="100%" height="100%" transform="translate(50 50)" stroke-width="0" style="transition: all 0.3s ease 0s;" stroke="url(#sw-gradient)"></path>
              </svg>